<?xml version="1.0" encoding="utf-8"?>
<!-- Generator: Adobe Illustrator 26.4.1, SVG Export Plug-In . SVG Version: 6.00 Build 0)  -->
<svg version="1.1" id="Layer_1" xmlns="http://www.w3.org/2000/svg" xmlns:xlink="http://www.w3.org/1999/xlink" x="0px" y="0px"
	 viewBox="0 0 720 95" style="enable-background:new 0 0 720 95;" xml:space="preserve">
<style type="text/css">
	.st0{fill:#FFFFFF;}
	.st1{fill:none;stroke:#FFFFFF;stroke-width:2.0003;}
</style>
<g>
	<path class="st0" d="M116.3,57.3h2.4c1.8,8.2,6.4,13.6,13.3,13.6c6.5,0,10.6-3.8,10.6-10.1c0-6.5-7-9.9-10.2-11.2l-1.3-0.5
		c-7.7-2.7-13.9-6.8-13.9-14.5c0-9.7,7.9-14.2,16.9-14.2c5,0,10,1.3,12.5,3.2V34h-2.3c-1.2-7.4-4.7-11-11-11c-6.2,0-9.4,4-9.4,9.3
		c0,4.4,4.1,7.6,9,9.4l2.4,0.9c8.6,3.2,14.5,7.3,14.5,16c0,7.5-5.1,14.9-18.2,14.9c-5.1,0-11.2-1.4-14.5-4.4L116.3,57.3z"/>
	<path class="st0" d="M177.1,72.4v-1.7l2.6-0.2c1.9-0.2,2.1-0.8,1.6-2.5l-3.9-11.1h-13c-1.3,4.1-2.6,7.7-3.5,11.2
		c-0.5,1.6-0.3,2.1,1.5,2.3l3,0.3v1.7h-12.8v-1.7c3.7-0.2,4.2-0.9,5.4-4c2-5.3,4.5-12.2,6.3-17.3l6.1-17.2h4.3l12.3,35
		c1,3,1.7,3.2,5.1,3.5v1.7H177.1z M170.9,38.1h-0.2c-1.7,5.1-3.8,10.8-5.6,16.6h11.6L170.9,38.1z"/>
	<path class="st0" d="M205.7,32.2c7.5,10.7,15,21.4,22.6,32l0.1,0.1V44c0-3.1-0.1-5.3-0.4-7.2c-0.3-2.4-1.7-2.6-5.5-2.9v-1.7h13.8
		v1.7c-3,0.2-4.4,0.5-4.8,2.9c-0.3,1.9-0.4,4.1-0.4,7.2v28.4h-3.8c-8.2-11.7-16.4-23.3-24.7-34.9h-0.1v23.2c0,3.1,0.1,5.3,0.4,7.2
		c0.4,2.4,1.7,2.6,5.5,2.9v1.7h-13.8v-1.7c3-0.2,4.4-0.5,4.8-2.9c0.3-1.9,0.4-4.1,0.4-7.2v-23c0-3.2-0.1-3.4-5.2-3.7v-1.7H205.7z"/>
	<path class="st0" d="M260.2,67c0,3.3,0.2,3.4,6.4,3.7v1.7H248v-1.7c6.2-0.3,6.4-0.5,6.4-3.7V34.3H251c-6.8,0-8,1.3-8.7,7.6h-1.7
		v-9.6H274v9.6h-1.7c-0.7-6.3-1.9-7.6-8.7-7.6h-3.4V67z"/>
	<path class="st0" d="M295.9,72.4v-1.7l2.6-0.2c1.9-0.2,2.1-0.8,1.6-2.5l-3.9-11.1h-13c-1.3,4.1-2.6,7.7-3.5,11.2
		c-0.5,1.6-0.3,2.1,1.5,2.3l3,0.3v1.7h-12.8v-1.7c3.7-0.2,4.2-0.9,5.4-4c2-5.3,4.5-12.2,6.3-17.3l6.1-17.2h4.3l12.3,35
		c1,3,1.7,3.2,5,3.5v1.7H295.9z M289.7,38.1h-0.2c-1.7,5.1-3.8,10.8-5.6,16.6h11.6L289.7,38.1z"/>
	<path class="st0" d="M369.6,21.5v11.8h-2.2c-1-7.5-2.7-9.2-11.2-9.2h-7.3c-2.4,0-2.7,0.2-2.7,2.6v18.8h10.3c6.2,0,6.5-1.8,7.2-6.5
		h2.2v15.7h-2.2c-0.7-4.7-1-6.5-7.2-6.5h-10.3v17.2c0,4.1,0.2,4.3,7.8,4.7v2.1h-21.7v-2.1c6.5-0.4,6.6-0.6,6.6-4.7V28.4
		c0-4.1-0.2-4.3-6.6-4.7v-2.1H369.6z"/>
	<path class="st0" d="M405.5,32.2v9.5h-1.7c-0.8-6-2.1-7.5-8.8-7.5h-5.7c-1.9,0-2.1,0.2-2.1,2.1v14h8.1c4.9,0,5.2-1.4,5.7-5h1.7
		v12.2H401c-0.5-3.7-0.8-5.1-5.7-5.1h-8.1v12.8c0,2.8,0.2,3.8,1.4,4.4c1.2,0.5,3.3,0.6,6,0.6c7.3,0,9.9-0.9,11.3-8h1.7l-0.7,10
		h-30.8v-1.7c5.1-0.3,5.2-0.5,5.2-3.7V37.6c0-3.2-0.1-3.4-5.2-3.7v-1.7H405.5z"/>
	<path class="st0" d="M475.7,34.8h-2.2c-1.4-8.7-6.6-11.8-14.1-11.8c-13.7-0.1-18.5,12.1-18.5,24.1c0,8.9,3.2,23.8,18.3,23.8
		c9.6,0,13.4-5.6,15.4-13.2h2.2l-1,12.3c-3.5,1.9-10.3,3.5-16.2,3.5c-8.2,0-15.4-1.7-20-6.2c-4.4-4.4-7-11.3-7-19.9
		c0-8.3,2.5-14.6,6.7-19.3c4.4-4.9,11.7-7.6,20.7-7.6c6.7,0,12.3,1.3,15.6,2.9V34.8z"/>
	<path class="st0" d="M517.8,37c3.2,3.5,4.9,8.8,4.9,15.3c0,6.5-1.7,11.8-4.9,15.3c-3.2,3.7-8,5.6-14.4,5.6c-6.4,0-11.1-2-14.4-5.6
		c-3.1-3.5-4.9-8.8-4.9-15.3c0-6.6,1.8-11.8,4.9-15.3c3.2-3.7,8-5.6,14.4-5.6C509.9,31.4,514.6,33.3,517.8,37z M490.6,52.3
		c0.1,8.5,2.5,18.9,12.8,18.9c10.3,0,12.7-10.4,12.8-18.9c-0.1-8.5-2.5-18.9-12.8-18.9C493.1,33.4,490.7,43.8,490.6,52.3z"/>
	<path class="st0" d="M540,65.4c0,2.8,0.2,3.8,1.5,4.4c1.2,0.5,3.3,0.6,6.2,0.6c6.1,0,9.3-0.8,10.4-8.4h1.7l-0.7,10.4H529v-1.7
		c5.1-0.3,5.2-0.5,5.2-3.7V37.6c0-3.2-0.1-3.4-5.2-3.7v-1.7h16.5v1.7c-5.4,0.3-5.6,0.5-5.6,3.7V65.4z"/>
	<path class="st0" d="M574.4,65.4c0,2.8,0.2,3.8,1.5,4.4c1.2,0.5,3.3,0.6,6.2,0.6c6.1,0,9.3-0.8,10.4-8.4h1.7l-0.7,10.4h-30.1v-1.7
		c5.1-0.3,5.2-0.5,5.2-3.7V37.6c0-3.2-0.1-3.4-5.2-3.7v-1.7H580v1.7c-5.4,0.3-5.6,0.5-5.6,3.7V65.4z"/>
	<path class="st0" d="M627.2,32.2v9.5h-1.7c-0.8-6-2.1-7.5-8.8-7.5H611c-1.9,0-2.2,0.2-2.2,2.1v14h8.1c4.9,0,5.2-1.4,5.7-5h1.7v12.2
		h-1.7c-0.5-3.7-0.8-5.1-5.7-5.1h-8.1v12.8c0,2.8,0.2,3.8,1.5,4.4c1.2,0.5,3.3,0.6,6,0.6c7.3,0,9.9-0.9,11.3-8h1.7l-0.7,10h-30.8
		v-1.7c5.1-0.3,5.2-0.5,5.2-3.7V37.6c0-3.2-0.1-3.4-5.2-3.7v-1.7H627.2z"/>
	<path class="st0" d="M670.4,70.8c-3.7,1.2-9.3,2.4-13.4,2.4c-5.1,0-10.2-0.6-14.6-3.7c-4.2-3-7.2-9-7.2-16.5c0-6,1.4-10.7,4.4-14.6
		c3.3-4.3,9.1-7.1,17.8-7.1c4.6,0,9.6,1,12.5,2.4v9.1h-1.7c-1.2-6.6-4.9-9.5-11.3-9.5c-11.4,0-15.1,9.6-15.1,18.7
		c0,7.3,2.5,19.1,15.8,19.1c2,0,3.6-0.3,5.1-0.9c1.2-0.5,2-1.1,2-3.1v-7.8c0-2.8-0.3-3.2-6.2-3.6v-1.7h16v1.7
		c-3.8,0.4-4.1,0.7-4.1,3.6V70.8z"/>
	<path class="st0" d="M707.9,32.2v9.5h-1.7c-0.8-6-2.1-7.5-8.8-7.5h-5.7c-1.9,0-2.2,0.2-2.2,2.1v14h8.1c4.9,0,5.2-1.4,5.7-5h1.7
		v12.2h-1.7c-0.5-3.7-0.8-5.1-5.7-5.1h-8.1v12.8c0,2.8,0.2,3.8,1.5,4.4c1.2,0.5,3.3,0.6,6,0.6c7.3,0,9.9-0.9,11.3-8h1.7l-0.7,10
		h-30.8v-1.7c5.1-0.3,5.2-0.5,5.2-3.7V37.6c0-3.2-0.1-3.4-5.2-3.7v-1.7H707.9z"/>
</g>
<g>
	<g>
		<path class="st0" d="M10,49.6l2.6,0c2,9.3,7.1,15.3,14.9,15.3c7.3,0,11.9-4.2,11.9-11.3c0-7.3-7.8-11.2-11.4-12.6l-1.5-0.6
			C17.9,37.3,11,32.7,11,24.1c0.1-10.9,9-15.9,19.1-15.8c5.6,0,11.2,1.5,14,3.7L44,23.6l-2.6,0c-1.3-8.3-5.2-12.4-12.3-12.4
			c-6.9,0-10.6,4.4-10.6,10.4c0,5,4.6,8.5,10.1,10.6l2.6,1c9.6,3.6,16.2,8.3,16.2,18c0,8.4-5.9,16.7-20.5,16.6
			c-5.8,0-12.6-1.6-16.2-5L10,49.6z"/>
	</g>
	<g>
		<path class="st0" d="M88.9,32.5l-0.1,12.6l-2.4,0c-1.1-8-2.9-9.9-12-9.9l-7.8,0c-2.6,0-2.9,0.2-2.9,2.8l-0.1,20.2l11,0.1
			c6.7,0,7-1.8,7.8-6.9l2.4,0l-0.1,16.9l-2.4,0c-0.7-5-1-6.9-7.7-7l-11-0.1l-0.1,18.4c0,4.4,0.2,4.6,8.3,5.1l0.3,2.3l-23.9-0.1
			l0.4-2.3c6.9-0.4,7.1-0.6,7.1-5l0.2-39.9c0-4.4-0.1-4.6-7.1-5.1l0-2.3L88.9,32.5z"/>
	</g>
</g>
<g>
	<circle class="st1" cx="102.6" cy="9" r="1"/>
	<circle class="st1" cx="102.6" cy="20.1" r="1"/>
	<path class="st1" d="M103.6,31.1c0,0.5-0.4,1-1,1s-1-0.4-1-1c0-0.5,0.4-1,1-1S103.6,30.6,103.6,31.1z"/>
	<circle class="st1" cx="102.6" cy="42.1" r="1"/>
	<path class="st1" d="M103.6,53.2c0,0.5-0.4,1-1,1s-1-0.4-1-1c0-0.5,0.4-1,1-1S103.6,52.6,103.6,53.2z"/>
	<circle class="st1" cx="102.6" cy="64.2" r="1"/>
	<path class="st1" d="M103.6,75.3c0,0.5-0.4,1-1,1s-1-0.4-1-1c0-0.5,0.4-1,1-1S103.6,74.7,103.6,75.3z"/>
	<circle class="st1" cx="102.6" cy="86.3" r="1"/>
</g>
</svg>
