<?xml version="1.0" encoding="utf-8"?>
<!-- Generator: Adobe Illustrator 26.4.1, SVG Export Plug-In . SVG Version: 6.00 Build 0)  -->
<svg version="1.1" id="Layer_1" xmlns="http://www.w3.org/2000/svg" xmlns:xlink="http://www.w3.org/1999/xlink" x="0px" y="0px"
	 viewBox="0 0 137.8 137.5" style="enable-background:new 0 0 137.8 137.5;" xml:space="preserve">
<style type="text/css">
	.st0{fill:#FFFFFF;}
</style>
<g>
	<g>
		<path class="st0" d="M4.9,71.9l4.3,0c3.3,15.1,11.5,24.9,24.1,25C45.2,97,52.6,90,52.7,78.5C52.7,66.6,40,60.3,34.2,58l-2.4-1
			c-14-5-25.2-12.5-25.2-26.6C6.7,12.7,21.2,4.6,37.5,4.7c9.1,0.1,18.2,2.4,22.7,6l-0.1,18.9l-4.2,0C53.9,16.1,47.5,9.5,36,9.4
			c-11.2-0.1-17.2,7.1-17.2,16.9c0,8.1,7.4,13.9,16.4,17.3l4.3,1.6c15.6,5.9,26.3,13.4,26.2,29.3c-0.1,13.7-9.5,27.2-33.2,27.1
			c-9.4-0.1-20.5-2.7-26.3-8.2L4.9,71.9z"/>
	</g>
	<g>
		<path class="st0" d="M132.9,44.1l-0.1,20.5l-3.8,0c-1.7-13.1-4.7-16-19.5-16.1l-12.7-0.1c-4.2,0-4.7,0.4-4.8,4.6l-0.2,32.8
			l17.9,0.1c10.9,0.1,11.4-3,12.6-11.2l3.8,0l-0.1,27.5l-3.8,0c-1.1-8.2-1.6-11.3-12.5-11.3l-17.9-0.1l-0.2,30
			c0,7.2,0.3,7.4,13.5,8.3l0.5,3.7l-38.9-0.2l0.6-3.7c11.3-0.7,11.5-1,11.6-8.1l0.3-64.9c0-7.2-0.2-7.4-11.5-8.3l0-3.7L132.9,44.1z"
			/>
	</g>
</g>
</svg>
